<svg width="67" height="46" viewBox="0 0 67 46" fill="none" xmlns="http://www.w3.org/2000/svg">
<mask id="mask0_55_2" style="mask-type:luminance" maskUnits="userSpaceOnUse" x="0" y="15" width="34" height="31">
<path d="M0 15.4956H33.6157V45.0629H0V15.4956Z" fill="white"/>
</mask>
<g mask="url(#mask0_55_2)">
<path d="M22.5629 36.4295V40.5085L4.0921 31.9274V28.618L22.5629 20.0361V24.1159L8.5942 30.2339V30.3107L22.5629 36.4295ZM33.5329 15.5043H2.64374C1.18492 15.5043 0.00268555 16.6866 0.00268555 18.1454V42.4C0.00268555 43.858 1.18492 45.0402 2.64374 45.0402H24.9579L33.5329 15.5043Z" fill="#0652E9"/>
</g>
<mask id="mask1_55_2" style="mask-type:luminance" maskUnits="userSpaceOnUse" x="33" y="0" width="35" height="30">
<path d="M33.3923 0H67.008V29.5673H33.3923V0Z" fill="white"/>
</mask>
<g mask="url(#mask1_55_2)">
<path d="M62.9229 16.5531L44.4529 25.019V20.9391L58.7288 14.822V14.7444L44.4529 8.62554V4.54747L62.9229 13.0125V16.5531ZM42.1085 0.0148315L33.5327 29.5516H64.3721C65.8301 29.5516 67.0123 28.3694 67.0123 26.9105V2.65502C67.0123 1.19707 65.8301 0.0148315 64.3721 0.0148315H42.1085Z" fill="#62E1E9"/>
</g>
</svg>
